P3
3 3
255
240
120
80
111
23
88
243
11
99
78
99
90
254
188
91
44
2
200
91
78
222
76
232
192
78
112
222
