P3
3 3
255
221
123
184
105
7
68
171
50
166
160
62
123
253
155
216
115
0
110
34
104
129
162
232
255
54
101
179
